<svg xmlns="http://www.w3.org/2000/svg" viewBox="0 0 100 100"><defs><style>.cls-1{fill:#56c0a7;}.cls-2{fill:#fff;}.cls-3{fill:none;}.cls-4{fill:#232f3e;}</style></defs><title>End-User-Computing_dark-bg</title><g id="Working"><rect class="cls-1" x="8.5" y="8.5" width="82" height="82"/><path class="cls-2" d="M89,10V89H10V10H89m3-3H7V92H92V7Z"/><rect class="cls-3" width="100" height="100"/><path class="cls-4" d="M72.74,33.5H70V31a3.52,3.52,0,0,0-3.53-3.5H33.53A3.52,3.52,0,0,0,30,31V57.5H26a1,1,0,0,0-.9.55,1,1,0,0,0,.1,1.05l3.79,5a1,1,0,0,0,.8.4H52v5.74a2.26,2.26,0,0,0,2.26,2.26H72.74A2.26,2.26,0,0,0,75,70.24V35.76A2.26,2.26,0,0,0,72.74,33.5Zm0,2a.26.26,0,0,1,.26.26V60.5H54v-4h6.26a4.77,4.77,0,0,0,4.63-4.79c0-3.18-1.15-4.79-3.42-4.79H60.06v-.26a3.73,3.73,0,0,0-1.63-3A5.77,5.77,0,0,0,54,42.84V35.76a.26.26,0,0,1,.26-.26ZM43.41,41.4a3.7,3.7,0,0,1-.26-1.34,4,4,0,0,1,4-4,4.41,4.41,0,0,1,4.35,4.13v1.18a1,1,0,0,0,.47.83V50.5H41.14a4,4,0,1,1,0-8,4.08,4.08,0,0,1,1.07.16,1,1,0,0,0,1-.29A1,1,0,0,0,43.41,41.4ZM58.3,48.58a1,1,0,0,0,.75.34h2.42c.54,0,1.42,0,1.42,2.79a2.75,2.75,0,0,1-2.63,2.79H54V44.88a4,4,0,0,1,3.26.36,1.73,1.73,0,0,1,.79,1.42v.26c0,.29,0,.73,0,.86A1,1,0,0,0,58.3,48.58ZM32,31a1.52,1.52,0,0,1,1.53-1.5H66.42A1.52,1.52,0,0,1,68,31v2.5H54.26A2.26,2.26,0,0,0,52,35.76v.56a6.48,6.48,0,0,0-4.82-2.24,6,6,0,0,0-6,6c0,.16,0,.33,0,.49h0a6,6,0,1,0,0,12H52v5H32ZM30.29,62.5,28,59.5H52v3Zm42.45,8H54.26a.26.26,0,0,1-.26-.26V62.5H73v7.74A.26.26,0,0,1,72.74,70.5Z"/></g></svg>