<?xml version="1.0" encoding="utf-8"?>
<svg viewBox="0 0 128 128" xmlns="http://www.w3.org/2000/svg">
  <path style="fill:#E14B4B;" d="M 106.561 56.004 C 107.734 77.882 84.188 95.654 56.585 95.654 C 28.981 95.654 6.612 77.901 6.612 56.004 C 6.612 56.004 6.129 37.052 12.298 28.523 C 12.298 28.523 14.062 37.474 22.348 40.831 C 30.633 44.189 32.924 46.846 32.924 46.846 C 32.924 46.846 8.562 26.424 48.05 2.087 C 48.05 2.087 47.984 10.245 56.269 15.14 C 64.555 20.035 70.648 26.282 69.768 32.296 C 69.768 32.296 71.859 30.16 69.743 18.974 C 69.743 18.974 87.398 21.946 86.867 50.338 C 86.867 50.338 99.734 49.64 95.327 32.437 C 95.327 32.437 105.638 38.731 106.561 56.004 Z"/>
  <path style="fill:#FFD83B;" d="M 2.314 58.488 C 2.314 58.488 0.797 96.273 51.405 94.906 C 51.405 94.906 94.086 102.787 96.834 68.327 C 96.834 68.327 72.3 82.528 72.534 59.885 C 72.572 55.856 74.074 51.928 76.467 48.317 C 79.207 44.169 82.476 36.772 80.377 26.787 C 80.377 26.787 74.353 46.419 60.252 36.829 C 51.82 31.093 46.615 18.7 57.266 5.185 C 57.266 5.185 41.073 9.459 38.325 24.858 C 37.804 27.774 35.779 30.805 31.944 31.443 C 28.169 32.071 19.23 31.128 15.728 23.9 C 15.728 23.9 12.09 32.297 24.282 53.279 C 24.282 53.279 27.633 63.304 16.657 67.412 C 5.681 71.52 2.314 58.488 2.314 58.488 Z"/>
  <path style="fill:#E14B4B;" d="M 147.54 15.173 C 148.713 -6.705 125.882 0.303 98.279 0.303 C 70.675 0.303 75.766 -9.512 75.766 12.385 C 75.766 12.385 65.254 42.914 70.393 36.346 C 75.532 29.778 82.965 28.923 82.965 28.923 C 98.642 24.035 67.053 46.947 95.691 69.966 C 95.691 69.966 92.06 63.076 100.345 58.181 C 108.631 53.286 111.627 44.895 110.747 38.881 C 110.747 38.881 119.033 43.638 116.917 54.824 C 116.917 54.824 128.377 49.231 127.846 20.839 C 127.846 20.839 140.713 21.537 136.306 38.74 C 136.306 38.74 146.617 32.446 147.54 15.173 Z" transform="matrix(-0.976606, -0.215038, 0.215038, -0.976606, 184.845261, 94.861732)"/>
  <path style="fill:#FFD83B;" d="M 42.531 57.825 C 42.531 57.825 46.494 97.992 97.102 96.625 C 97.102 96.625 122.152 89.734 124.9 55.274 C 124.9 55.274 110.373 76.861 110.607 54.218 C 110.645 50.189 119.771 45.308 122.164 41.697 C 124.904 37.549 121.74 31.82 119.641 21.835 C 119.641 21.835 120.05 39.799 105.949 30.209 C 97.517 24.473 98.507 27.805 102.01 4.998 C 102.01 4.998 90.344 14.991 87.596 30.39 C 87.075 33.306 78.14 31.333 74.305 31.971 C 70.53 32.599 69.216 24.27 65.714 17.042 C 65.714 17.042 57.787 25.677 69.979 46.659 C 69.979 46.659 73.33 56.684 62.354 60.792 C 51.378 64.9 42.531 57.825 42.531 57.825 Z"/>
  <g>
    <ellipse cx="39.584" cy="80.266" fill="#ffca28" rx="11.092" ry="16.266"/>
    <path d="m110.63 64h-71.047c6.127 0 11.093 7.283 11.093 16.266s-4.966 16.266-11.092 16.267h71.046c6.113-.024 11.064-7.3 11.064-16.265s-4.951-16.242-11.064-16.268z" style="fill: rgb(155, 100, 66);"/>
    <g fill="#9b6e42">
      <path d="m28.491 80.267c0 8.983-4.966 16.265-11.091 16.266h22.183c-6.126-.001-11.091-7.283-11.092-16.266z" style="fill: rgb(155, 66, 66);"/>
      <path d="m28.491 80.266c.001-8.984 4.967-16.266 11.092-16.266h-22.183c6.125 0 11.091 7.282 11.091 16.266z" style="fill: rgb(155, 66, 66);"/>
      <path d="m39.584 96.533h.02z"/>
    </g>
    <ellipse cx="17.399" cy="80.266" fill="#ffca28" rx="11.092" ry="16.266"/>
    <ellipse cx="28.491" cy="47.734" fill="#ffca28" rx="11.092" ry="16.266"/>
    <path d="m99.538 31.469h-71.047c6.126 0 11.093 7.283 11.093 16.267s-4.966 16.264-11.092 16.264h71.046c6.113-.024 11.063-7.295 11.063-16.264s-4.95-16.243-11.063-16.267z" style="fill: rgb(155, 93, 66);"/>
    <g>
      <path d="m95.482 94.783h-4.5a1.75 1.75 0 0 0 0 3.5h4.5a1.75 1.75 0 0 0 0-3.5z"/>
      <path d="m39.585 91.777a1.75 1.75 0 0 0 0-3.5c-1.394 0-3.418-3.12-3.418-8.01s2.024-8.011 3.418-8.011 3.415 3.12 3.415 8.011a1.75 1.75 0 0 0 3.5 0c0-6.562-2.974-11.511-6.919-11.511s-6.918 4.949-6.918 11.511 2.978 11.51 6.922 11.51z"/>
      <path d="m20.9 90.287a1.75 1.75 0 1 0 -2.4-2.551 1.668 1.668 0 0 1 -1.1.541c-1.394 0-3.419-3.12-3.419-8.01s2.025-8.011 3.419-8.011a1.75 1.75 0 0 0 0-3.5c-3.944 0-6.919 4.949-6.919 11.511s2.975 11.51 6.919 11.51a5.1 5.1 0 0 0 3.5-1.49z"/>
      <path d="m22 85.077a1.775 1.775 0 0 0 .306.027 1.75 1.75 0 0 0 1.721-1.446 19.461 19.461 0 0 0 .291-3.391 1.75 1.75 0 0 0 -3.5 0 16.1 16.1 0 0 1 -.237 2.782 1.75 1.75 0 0 0 1.419 2.028z"/>
      <path d="m33.6 45.983a1.75 1.75 0 0 0 -1.75 1.75c0 4.585-1.99 7.512-3.36 7.512s-3.36-2.927-3.36-7.512 1.99-7.51 3.36-7.51a1.75 1.75 0 0 0 0-3.5c-3.91 0-6.86 4.733-6.86 11.01s2.95 11.012 6.86 11.012 6.86-4.734 6.86-11.012a1.751 1.751 0 0 0 -1.75-1.75z"/>
      <path d="m123.442 80.319c0-.018 0-.035 0-.052 0-10.026-5.571-17.911-12.7-18.014-.036 0-.073 0-.11 0h-3.455c3.154-3.254 5.176-8.491 5.176-14.517 0-10.072-5.625-17.986-12.813-18.016h-46.056a1.75 1.75 0 1 0 0 3.5h46.047c2.4.009 4.582 1.445 6.236 3.773h-39.676a1.75 1.75 0 0 0 0 3.5h41.5a20.8 20.8 0 0 1 1.26 7.241 21.039 21.039 0 0 1 -1.107 6.839h-54.26a1.75 1.75 0 0 0 0 3.5h52.567c-1.682 2.57-3.983 4.167-6.52 4.178h-63.466a20.414 20.414 0 0 0 5.205-12.768h35.43a1.75 1.75 0 0 0 0-3.5h-35.43a20.416 20.416 0 0 0 -5.205-12.766h9.742a1.75 1.75 0 0 0 0-3.5h-17.316c-7.081 0-12.842 8.082-12.842 18.016 0 5.959 2.081 11.235 5.268 14.517h-3.517c-7.081 0-12.842 8.082-12.842 18.017s5.76 18.016 12.842 18.016h64.928a1.75 1.75 0 0 0 0-3.5h-35.17a20.392 20.392 0 0 0 5.2-12.7h12.111a1.75 1.75 0 0 0 0-3.5h-12.1a23.8 23.8 0 0 0 -1.044-5.6h39.508a1.75 1.75 0 0 0 0-3.5h-40.985a16.546 16.546 0 0 0 -2.69-3.736h63.379.087c4.773.019 8.713 5.639 9.251 12.835h-40.837a1.75 1.75 0 0 0 0 3.5h40.823c-.579 7.128-4.5 12.676-9.231 12.7h-7.409a1.75 1.75 0 0 0 0 3.5h.456 6.96c7.155-.027 12.762-7.885 12.8-17.906 0-.013 0-.025 0-.038zm-91.433-14.569a17.479 17.479 0 0 0 -3.518 5.48 17.443 17.443 0 0 0 -3.518-5.48zm-12.86-18.017c0-7.868 4.278-14.516 9.342-14.516s9.342 6.648 9.342 14.516-4.278 14.517-9.342 14.517-9.342-6.65-9.342-14.517zm-11.092 32.534c0-7.869 4.278-14.517 9.342-14.517s9.342 6.648 9.342 14.517-4.278 14.516-9.341 14.516-9.343-6.648-9.343-14.516zm20.434 9.033a17.479 17.479 0 0 0 3.518 5.48h-7.036a17.443 17.443 0 0 0 3.518-5.48zm20.435-9.036c0 7.868-4.279 14.516-9.343 14.516s-9.342-6.648-9.342-14.516 4.279-14.514 9.342-14.514 9.343 6.65 9.343 14.517z" style="color: red; fill: rgba(56, 53, 53, 0.92);"/>
      <path d="m104.016 72.986a1.75 1.75 0 0 0 0-3.5h-5a1.75 1.75 0 0 0 0 3.5z"/>
      <path d="m60.546 86.917a1.75 1.75 0 1 0 0 3.5h21.754a1.75 1.75 0 0 0 0-3.5z"/>
      <path d="m109.879 90.417a1.75 1.75 0 0 0 0-3.5h-13.317a1.75 1.75 0 1 0 0 3.5z"/>
      <path d="m48.811 40.492h5.889a1.75 1.75 0 0 0 0-3.5h-5.889a1.75 1.75 0 0 0 0 3.5z"/>
      <path d="M 91.27 49.483 C 92.617 49.483 93.459 48.025 92.786 46.858 C 92.473 46.317 91.895 45.983 91.27 45.983 L 84.446 45.983 C 83.099 45.983 82.257 47.441 82.93 48.608 C 83.243 49.149 83.821 49.483 84.446 49.483 Z"/>
    </g>
  </g>
</svg>