<svg height="512" viewBox="0 0 128 128" width="512" xmlns="http://www.w3.org/2000/svg"><g><ellipse cx="39.584" cy="80.266" fill="#ffca28" rx="11.092" ry="16.266"/><path d="m110.63 64h-71.047c6.127 0 11.093 7.283 11.093 16.266s-4.966 16.266-11.092 16.267h71.046c6.113-.024 11.064-7.3 11.064-16.265s-4.951-16.242-11.064-16.268z" fill="#9b6e42"/><g fill="#9b6e42"><path d="m28.491 80.267c0 8.983-4.966 16.265-11.091 16.266h22.183c-6.126-.001-11.091-7.283-11.092-16.266z"/><path d="m28.491 80.266c.001-8.984 4.967-16.266 11.092-16.266h-22.183c6.125 0 11.091 7.282 11.091 16.266z"/><path d="m39.584 96.533h.02z"/></g><ellipse cx="17.399" cy="80.266" fill="#ffca28" rx="11.092" ry="16.266"/><ellipse cx="28.491" cy="47.734" fill="#ffca28" rx="11.092" ry="16.266"/><path d="m99.538 31.469h-71.047c6.126 0 11.093 7.283 11.093 16.267s-4.966 16.264-11.092 16.264h71.046c6.113-.024 11.063-7.295 11.063-16.264s-4.95-16.243-11.063-16.267z" fill="#9b6e42"/><g><path d="m95.482 94.783h-4.5a1.75 1.75 0 0 0 0 3.5h4.5a1.75 1.75 0 0 0 0-3.5z"/><path d="m39.585 91.777a1.75 1.75 0 0 0 0-3.5c-1.394 0-3.418-3.12-3.418-8.01s2.024-8.011 3.418-8.011 3.415 3.12 3.415 8.011a1.75 1.75 0 0 0 3.5 0c0-6.562-2.974-11.511-6.919-11.511s-6.918 4.949-6.918 11.511 2.978 11.51 6.922 11.51z"/><path d="m20.9 90.287a1.75 1.75 0 1 0 -2.4-2.551 1.668 1.668 0 0 1 -1.1.541c-1.394 0-3.419-3.12-3.419-8.01s2.025-8.011 3.419-8.011a1.75 1.75 0 0 0 0-3.5c-3.944 0-6.919 4.949-6.919 11.511s2.975 11.51 6.919 11.51a5.1 5.1 0 0 0 3.5-1.49z"/><path d="m22 85.077a1.775 1.775 0 0 0 .306.027 1.75 1.75 0 0 0 1.721-1.446 19.461 19.461 0 0 0 .291-3.391 1.75 1.75 0 0 0 -3.5 0 16.1 16.1 0 0 1 -.237 2.782 1.75 1.75 0 0 0 1.419 2.028z"/><path d="m33.6 45.983a1.75 1.75 0 0 0 -1.75 1.75c0 4.585-1.99 7.512-3.36 7.512s-3.36-2.927-3.36-7.512 1.99-7.51 3.36-7.51a1.75 1.75 0 0 0 0-3.5c-3.91 0-6.86 4.733-6.86 11.01s2.95 11.012 6.86 11.012 6.86-4.734 6.86-11.012a1.751 1.751 0 0 0 -1.75-1.75z"/><path d="m123.442 80.319c0-.018 0-.035 0-.052 0-10.026-5.571-17.911-12.7-18.014-.036 0-.073 0-.11 0h-3.455c3.154-3.254 5.176-8.491 5.176-14.517 0-10.072-5.625-17.986-12.813-18.016h-46.056a1.75 1.75 0 1 0 0 3.5h46.047c2.4.009 4.582 1.445 6.236 3.773h-39.676a1.75 1.75 0 0 0 0 3.5h41.5a20.8 20.8 0 0 1 1.26 7.241 21.039 21.039 0 0 1 -1.107 6.839h-54.26a1.75 1.75 0 0 0 0 3.5h52.567c-1.682 2.57-3.983 4.167-6.52 4.178h-63.466a20.414 20.414 0 0 0 5.205-12.768h35.43a1.75 1.75 0 0 0 0-3.5h-35.43a20.416 20.416 0 0 0 -5.205-12.766h9.742a1.75 1.75 0 0 0 0-3.5h-17.316c-7.081 0-12.842 8.082-12.842 18.016 0 5.959 2.081 11.235 5.268 14.517h-3.517c-7.081 0-12.842 8.082-12.842 18.017s5.76 18.016 12.842 18.016h64.928a1.75 1.75 0 0 0 0-3.5h-35.17a20.392 20.392 0 0 0 5.2-12.7h12.111a1.75 1.75 0 0 0 0-3.5h-12.1a23.8 23.8 0 0 0 -1.044-5.6h39.508a1.75 1.75 0 0 0 0-3.5h-40.985a16.546 16.546 0 0 0 -2.69-3.736h63.379.087c4.773.019 8.713 5.639 9.251 12.835h-40.837a1.75 1.75 0 0 0 0 3.5h40.823c-.579 7.128-4.5 12.676-9.231 12.7h-7.409a1.75 1.75 0 0 0 0 3.5h.456 6.96c7.155-.027 12.762-7.885 12.8-17.906 0-.013 0-.025 0-.038zm-91.433-14.569a17.479 17.479 0 0 0 -3.518 5.48 17.443 17.443 0 0 0 -3.518-5.48zm-12.86-18.017c0-7.868 4.278-14.516 9.342-14.516s9.342 6.648 9.342 14.516-4.278 14.517-9.342 14.517-9.342-6.65-9.342-14.517zm-11.092 32.534c0-7.869 4.278-14.517 9.342-14.517s9.342 6.648 9.342 14.517-4.278 14.516-9.341 14.516-9.343-6.648-9.343-14.516zm20.434 9.033a17.479 17.479 0 0 0 3.518 5.48h-7.036a17.443 17.443 0 0 0 3.518-5.48zm20.435-9.036c0 7.868-4.279 14.516-9.343 14.516s-9.342-6.648-9.342-14.516 4.279-14.514 9.342-14.514 9.343 6.65 9.343 14.517z"/><path d="m104.016 72.986a1.75 1.75 0 0 0 0-3.5h-5a1.75 1.75 0 0 0 0 3.5z"/><path d="m60.546 86.917a1.75 1.75 0 1 0 0 3.5h21.754a1.75 1.75 0 0 0 0-3.5z"/><path d="m109.879 90.417a1.75 1.75 0 0 0 0-3.5h-13.317a1.75 1.75 0 1 0 0 3.5z"/><path d="m48.811 40.492h5.889a1.75 1.75 0 0 0 0-3.5h-5.889a1.75 1.75 0 0 0 0 3.5z"/><path d="m93.27 49.483a1.75 1.75 0 0 0 0-3.5h-6.824a1.75 1.75 0 0 0 0 3.5z"/></g></g></svg>