<svg xmlns="http://www.w3.org/2000/svg" viewBox="0 0 100 100"><defs><style>.cls-1{fill:#ff4f8b;}.cls-2{fill:#fff;}.cls-3{fill:#232f3e;}</style></defs><title>Application-Integration_dark-bg</title><g id="Working"><rect class="cls-1" x="8.5" y="8.5" width="82" height="82"/><path class="cls-2" d="M89,10V89H10V10H89m3-3H7V92H92V7Z"/><path class="cls-3" d="M70.58,26H29.42A3.42,3.42,0,0,0,26,29.42V70.58A3.42,3.42,0,0,0,29.42,74H70.58A3.42,3.42,0,0,0,74,70.58V29.42A3.42,3.42,0,0,0,70.58,26ZM72,29.42V49H66.49a5.45,5.45,0,0,0-1.59-6.51,5.53,5.53,0,0,0-4.69-1,5.44,5.44,0,0,0-4,3.91,5.53,5.53,0,0,0,.3,3.64H51V41a1,1,0,0,0-1.72-.69,3.47,3.47,0,0,1-3.43,1,3.38,3.38,0,0,1-2.45-2.5,3.47,3.47,0,0,1,5.88-3.23A1,1,0,0,0,51,34.82V28H70.58A1.43,1.43,0,0,1,72,29.42ZM29.42,28H49v4.9a5.49,5.49,0,0,0-6.51,1.59,5.56,5.56,0,0,0-1,4.7,5.43,5.43,0,0,0,3.9,4A5.55,5.55,0,0,0,49,42.89V49H41.58a1,1,0,0,0-.93.63,1,1,0,0,0,.24,1.09,3.47,3.47,0,0,1-3.23,5.88,3.41,3.41,0,0,1-2.51-2.45,3.51,3.51,0,0,1,1-3.43,1,1,0,0,0,.24-1.09,1,1,0,0,0-.93-.63H28V29.42A1.43,1.43,0,0,1,29.42,28ZM28,70.58V51h5.51a5.55,5.55,0,0,0-.3,3.65,5.44,5.44,0,0,0,4,3.9,6.27,6.27,0,0,0,1.28.14,5.45,5.45,0,0,0,5-7.69H49v6.82a1,1,0,0,0,1.72.69,3.47,3.47,0,0,1,5.88,3.23,3.38,3.38,0,0,1-2.45,2.5,3.47,3.47,0,0,1-3.43-1A1,1,0,0,0,49,64v8H29.42A1.43,1.43,0,0,1,28,70.58ZM70.58,72H51V65.89a5.55,5.55,0,0,0,3.65.29,5.43,5.43,0,0,0,3.9-4,5.56,5.56,0,0,0-1-4.7A5.49,5.49,0,0,0,51,55.9V51h7.42a1,1,0,0,0,.93-.63,1,1,0,0,0-.24-1.09,3.51,3.51,0,0,1-1-3.43,3.41,3.41,0,0,1,2.51-2.45,3.47,3.47,0,0,1,3.23,5.88,1,1,0,0,0-.24,1.09,1,1,0,0,0,.93.63H72V70.58A1.43,1.43,0,0,1,70.58,72Z"/></g></svg>