<svg xmlns="http://www.w3.org/2000/svg" viewBox="0 0 100 100"><defs><style>.cls-1{fill:#ff5252;}.cls-2{fill:#fff;}.cls-3{fill:none;}.cls-4{fill:#232f3e;}</style></defs><title>Mobile_dark-bg</title><g id="Working"><rect class="cls-1" x="8.5" y="8.5" width="82" height="82"/><path class="cls-2" d="M89,10V89H10V10H89m3-3H7V92H92V7Z"/><rect class="cls-3" width="100" height="100"/><g id="ICONS_-_EDIT" data-name="ICONS - EDIT"><path class="cls-4" d="M72.71,36H61V28.57A3.55,3.55,0,0,0,57.48,25h-29A3.55,3.55,0,0,0,25,28.57V67.43A3.55,3.55,0,0,0,28.52,71H51v1.71A2.3,2.3,0,0,0,53.29,75H72.71A2.3,2.3,0,0,0,75,72.71h0V38.29A2.3,2.3,0,0,0,72.71,36ZM28.52,69A1.54,1.54,0,0,1,27,67.44h0V28.57A1.54,1.54,0,0,1,28.51,27h29A1.54,1.54,0,0,1,59,28.57V36H56V31a1,1,0,0,0-1-1H31a1,1,0,0,0-1,1V64a1,1,0,0,0,1,1H51v4ZM51,38.29V63H32V32H54v4h-.74A2.3,2.3,0,0,0,51,38.29ZM73,72.71a.29.29,0,0,1-.29.29H53.29a.29.29,0,0,1-.29-.29h0V65H73ZM73,63H53V38.29a.29.29,0,0,1,.29-.29H72.71a.29.29,0,0,1,.29.29h0Z"/><rect class="cls-4" x="61" y="68" width="4" height="2"/></g></g></svg>