<svg xmlns="http://www.w3.org/2000/svg" viewBox="0 0 100 100"><defs><style>.cls-1{fill:#f90;}.cls-2{fill:#fff;}.cls-3{fill:none;}.cls-4{fill:#232f3e;}</style></defs><title>Compute_dark-bg</title><g id="Reference"><rect class="cls-1" x="8.5" y="8.5" width="82" height="82"/><path class="cls-2" d="M89,10V89H10V10H89m3-3H7V92H92V7Z"/><rect class="cls-3" width="100" height="100"/><g id="ICONS_-_EDIT" data-name="ICONS - EDIT"><path class="cls-4" d="M75,39V37H71V32.67A3.67,3.67,0,0,0,67.33,29H63V25H61v4H57V25H55v4H51V25H49v4H45V25H43v4H39V25H37v4H32.67A3.67,3.67,0,0,0,29,32.67V37H25v2h4v4H25v2h4v4H25v2h4v4H25v2h4v4H25v2h4v4.33A3.67,3.67,0,0,0,32.67,71H37v4h2V71h4v4h2V71h4v4h2V71h4v4h2V71h4v4h2V71h4.33A3.67,3.67,0,0,0,71,67.33V63h4V61H71V57h4V55H71V51h4V49H71V45h4V43H71V39ZM69,67.33A1.67,1.67,0,0,1,67.33,69H32.67A1.67,1.67,0,0,1,31,67.33V32.67A1.67,1.67,0,0,1,32.67,31H67.33A1.67,1.67,0,0,1,69,32.67Z"/><path class="cls-4" d="M59.62,38H40.38A2.4,2.4,0,0,0,38,40.38V59.62A2.4,2.4,0,0,0,40.38,62H59.62A2.4,2.4,0,0,0,62,59.62V40.38A2.4,2.4,0,0,0,59.62,38ZM60,59.62a.38.38,0,0,1-.38.38H40.38a.38.38,0,0,1-.38-.38h0V40.38a.38.38,0,0,1,.38-.38H59.62a.38.38,0,0,1,.38.38h0Z"/></g></g></svg>