<?xml version="1.0" encoding="UTF-8"?>
<svg width="75px" height="75px" viewBox="0 0 75 75" version="1.1" xmlns="http://www.w3.org/2000/svg" xmlns:xlink="http://www.w3.org/1999/xlink">
    <!-- Generator: Sketch 55.2 (78181) - https://sketchapp.com -->
    <title>EFS-Standard_dark-bg</title>
    <desc>Created with Sketch.</desc>
    <g id="EFS-Standard_dark-bg" stroke="none" stroke-width="1" fill="none" fill-rule="evenodd">
        <g id="Group-7">
            <polygon id="Fill-1" fill="#6CAE3E" points="0 75 75 75 75 0 0 0"></polygon>
            <g id="Group-6" transform="translate(13.000000, 12.000000)" fill="#232F3E">
                <path d="M36.4419,27.126 L36.4419,13.553 L46.4419,8.816 L46.4419,22.11 L36.4419,27.126 Z M24.4419,48.348 L24.4419,34.868 C24.4669,34.859 24.4959,34.863 24.5209,34.852 L34.4419,30.411 L34.4419,43.348 L24.4419,48.348 Z M13.4419,29.99 L22.4419,34.253 L22.4419,48.099 L13.4419,43.362 L13.4419,29.99 Z M2.4419,9.128 L11.4419,13.392 L11.4419,26.609 L2.4419,22.109 L2.4419,9.128 Z M47.9079,6.502 L36.6969,0.602 C36.4139,0.451 36.0749,0.447 35.7879,0.59 L27.6369,4.616 L28.5239,6.409 L36.2159,2.608 L45.0559,7.261 L35.9019,11.597 L31.1179,9.454 L30.3009,11.28 L34.4419,13.135 L34.4419,27.015 L30.6079,25.098 L29.7129,26.887 L33.3529,28.707 L24.1249,32.838 L14.9009,28.469 L18.3459,26.655 L17.4149,24.886 L13.4419,26.977 L13.4419,13.287 L18.7309,10.92 L17.9149,9.094 L12.3239,11.597 L3.5169,7.425 L12.6679,2.608 L21.1229,6.786 L22.0089,4.993 L13.0959,0.59 C12.8069,0.448 12.4699,0.452 12.1869,0.602 L0.9759,6.502 C0.6479,6.675 0.4419,7.016 0.4419,7.387 L0.4419,22.728 C0.4419,23.106 0.6559,23.452 0.9949,23.622 L11.4419,28.846 L11.4419,29.04 L11.4419,43.966 C11.4419,44.337 11.6479,44.678 11.9759,44.851 L23.1809,50.748 C23.3269,50.825 23.4869,50.863 23.6469,50.863 C23.7999,50.863 23.9539,50.828 24.0939,50.758 L35.8889,44.86 C36.2279,44.69 36.4419,44.345 36.4419,43.966 L36.4419,29.363 L47.8899,23.621 C48.2279,23.452 48.4419,23.105 48.4419,22.728 L48.4419,7.387 C48.4419,7.016 48.2359,6.675 47.9079,6.502 L47.9079,6.502 Z" id="Fill-2"></path>
                <path d="M27.8442,21.9268 C27.8442,23.4118 26.8192,24.6518 25.4422,25.0028 L25.4422,18.9838 C26.6922,19.4328 27.8442,20.3708 27.8442,21.9268 M21.4722,13.5548 C21.4722,12.2288 22.2872,11.0908 23.4422,10.6128 L23.4422,16.3198 C22.3722,15.8188 21.4722,14.9288 21.4722,13.5548 M19.4722,13.5548 C19.4722,15.8318 21.0292,17.7108 23.4422,18.4738 L23.4422,24.8688 C22.2872,24.3898 21.4722,23.2528 21.4722,21.9268 C21.4722,21.3738 21.0252,20.9268 20.4722,20.9268 C19.9192,20.9268 19.4722,21.3738 19.4722,21.9268 C19.4722,24.3648 21.1702,26.4028 23.4422,26.9528 L23.4422,29.0398 C23.4422,29.5928 23.8892,30.0398 24.4422,30.0398 C24.9942,30.0398 25.4422,29.5928 25.4422,29.0398 L25.4422,27.0328 C27.9282,26.6518 29.8442,24.5178 29.8442,21.9268 C29.8442,19.5208 28.0932,17.5738 25.4422,16.9038 L25.4422,10.4778 C26.8192,10.8288 27.8442,12.0708 27.8442,13.5548 C27.8442,14.1078 28.2912,14.5548 28.8442,14.5548 C29.3972,14.5548 29.8442,14.1078 29.8442,13.5548 C29.8442,10.9638 27.9282,8.8288 25.4422,8.4478 L25.4422,5.0398 C25.4422,4.4878 24.9942,4.0398 24.4422,4.0398 C23.8892,4.0398 23.4422,4.4878 23.4422,5.0398 L23.4422,8.5278 C21.1702,9.0778 19.4722,11.1158 19.4722,13.5548" id="Fill-4"></path>
            </g>
        </g>
    </g>
</svg>