<?xml version="1.0" encoding="UTF-8"?>
<svg width="75px" height="75px" viewBox="0 0 75 75" version="1.1" xmlns="http://www.w3.org/2000/svg" xmlns:xlink="http://www.w3.org/1999/xlink">
    <!-- Generator: Sketch 55.2 (78181) - https://sketchapp.com -->
    <title>EFS-Standard_dark-bg</title>
    <desc>Created with Sketch.</desc>
    <g id="EFS-Standard_dark-bg" stroke="none" stroke-width="1" fill="none" fill-rule="evenodd">
        <g id="Group-17">
            <polygon id="Fill-1" fill="#6CAE3E" points="0 75 75 75 75 0 0 0"></polygon>
            <g id="Group-16" transform="translate(11.000000, 11.000000)" fill="#232F3E">
                <path d="M41,30.3711 L41,18.6371 L49,14.8471 L49,26.1611 L41,30.3711 Z M31,48.7621 L31,37.1161 L39,33.5351 L39,44.7621 L31,48.7621 Z M21,33.6761 L29,37.4651 L29,48.9871 L21,44.7761 L21,33.6761 Z M10,14.7481 L18,18.5371 L18,30.2021 L10,26.2021 L10,14.7481 Z M18.839,9.3261 L27.119,13.4171 L19.274,16.9291 L11.443,13.2191 L18.839,9.3261 Z M29,14.7671 L29,26.1801 L20,30.9171 L20,18.7951 L29,14.7671 Z M39,30.4291 L31,26.4291 L31,15.1211 L39,18.7011 L39,30.4291 Z M29.616,35.5451 L22.188,32.0251 L29.755,28.0431 L37.605,31.9681 L29.616,35.5451 Z M40.242,9.4251 L47.601,13.2981 L39.936,16.9291 L32.128,13.4341 L40.242,9.4251 Z M50.466,12.5461 L40.723,7.4181 C40.439,7.2671 40.101,7.2641 39.813,7.4061 L29.591,12.4571 L29.61,12.4171 L19.268,7.3081 C18.981,7.1661 18.643,7.1711 18.359,7.3191 L8.534,12.4901 C8.206,12.6631 8,13.0041 8,13.3751 L8,26.8201 C8,27.1991 8.214,27.5451 8.553,27.7151 L18.895,32.8861 L19,32.6761 L19,45.3801 C19,45.7511 19.206,46.0921 19.534,46.2651 L29.277,51.3931 C29.423,51.4711 29.583,51.5091 29.743,51.5091 C29.896,51.5091 30.05,51.4741 30.19,51.4031 L30.997,51.0001 L31,51.0001 L31,50.9981 L40.447,46.2741 C40.786,46.1041 41,45.7591 41,45.3801 L41,32.6311 L50.466,27.6491 C50.794,27.4761 51,27.1361 51,26.7651 L51,13.4311 C51,13.0591 50.794,12.7191 50.466,12.5461 L50.466,12.5461 Z" id="Fill-2"></path>
                <polygon id="Fill-4" points="17.189 4.2471 11.539 0.9511 10.531 2.6801 16.181 5.9761"></polygon>
                <polygon id="Fill-6" points="12.5679 6.5898 7.2809 3.6658 6.3139 5.4158 11.5999 8.3398"></polygon>
                <polygon id="Fill-8" points="8.4136 10.1553 2.1746 6.5643 1.1766 8.2993 7.4156 11.8893"></polygon>
                <polygon id="Fill-10" points="5.4766 17.6348 6.4686 15.8988 3.5846 14.2498 2.5926 15.9868"></polygon>
                <polygon id="Fill-12" points="3.3574 29.7988 11.3574 33.9848 12.2844 32.2128 4.2844 28.0278"></polygon>
                <polygon id="Fill-14" points="6.7871 23.4307 1.6151 20.5077 0.6311 22.2477 5.8031 25.1707"></polygon>
            </g>
        </g>
    </g>
</svg>