<svg xmlns="http://www.w3.org/2000/svg" viewBox="0 0 100 100"><defs><style>.cls-1{fill:#6cae3e;}.cls-2{fill:#fff;}.cls-3{fill:none;}.cls-4{fill:#232f3e;}</style></defs><title>Storage_dark-bg</title><g id="Working"><rect class="cls-1" x="8.5" y="8.5" width="82" height="82"/><path class="cls-2" d="M89,10V89H10V10H89m3-3H7V92H92V7Z"/><rect class="cls-3" width="100" height="100"/><g id="ICONS_-_EDIT" data-name="ICONS - EDIT"><path class="cls-4" d="M72,51H65V38.9a.37.37,0,0,0-.1-.3c0-.1-.1-.2-.2-.3h0l-14-13A.91.91,0,0,0,50,25H36a1,1,0,0,0-1,1V51H28a1,1,0,0,0-1,1V71.4A3.59,3.59,0,0,0,30.6,75H69.4A3.59,3.59,0,0,0,73,71.4h0V52A1,1,0,0,0,72,51ZM51,28.3,61.4,38H51ZM37,27H49V40H63V51H37ZM71,71.4A1.58,1.58,0,0,1,69.4,73H30.6A1.58,1.58,0,0,1,29,71.4h0V53H71Z"/><rect class="cls-4" x="41" y="38" width="4" height="2"/><rect class="cls-4" x="41" y="32" width="4" height="2"/><rect class="cls-4" x="41" y="45" width="18" height="2"/><path class="cls-4" d="M59,62.6A2.41,2.41,0,0,1,56.6,65H43.4A2.43,2.43,0,0,1,41,62.6h0V59.4A2.43,2.43,0,0,1,43.4,57H56.6A2.41,2.41,0,0,1,59,59.4ZM43,59.4v3.2a.4.4,0,0,0,.4.4H56.6a.4.4,0,0,0,.4-.4V59.4a.4.4,0,0,0-.4-.4H43.4A.4.4,0,0,0,43,59.4Z"/></g></g></svg>