<svg xmlns="http://www.w3.org/2000/svg" viewBox="0 0 100 100"><defs><style>.cls-1{fill:#ff4f8b;}.cls-2{fill:#fff;}.cls-3{fill:none;}.cls-4{fill:#232f3e;}</style></defs><title>Management-and-Governance_dark-bg</title><g id="Working"><rect class="cls-1" x="8.5" y="8.5" width="82" height="82"/><path class="cls-2" d="M89,10V89H10V10H89m3-3H7V92H92V7Z"/><rect class="cls-3" width="100" height="100"/><g id="ICONS_-_EDIT" data-name="ICONS - EDIT"><path class="cls-4" d="M71.45,28H63V26a1,1,0,0,0-1-1H49a1,1,0,0,0-1,1v2H39.64A3.61,3.61,0,0,0,36,31.57V39H26a1,1,0,0,0-1,1V66a1,1,0,0,0,1,1H36v4.44A3.57,3.57,0,0,0,39.55,75h31.9A3.57,3.57,0,0,0,75,71.44V31.58A3.56,3.56,0,0,0,71.46,28ZM50,27H61v5H50ZM27,65V41H62V65Zm46,6.43A1.57,1.57,0,0,1,71.45,73H39.55A1.57,1.57,0,0,1,38,71.44V67H63a1,1,0,0,0,1-1V40a1,1,0,0,0-1-1H38V31.57A1.6,1.6,0,0,1,39.64,30H48v3a1,1,0,0,0,1,1H62a1,1,0,0,0,1-1V30h8.45A1.58,1.58,0,0,1,73,31.58ZM58,56v2H52v3H50V58H31V56H50V53h2v3Zm0-8v2H38v3H36V50H31V48h5V45h2v3Z"/></g></g></svg>