<svg xmlns="http://www.w3.org/2000/svg" width="50" height="50" viewBox="0 0 50 50"><title>Systems-Manager_Operations-Center_light-bg</title><g id="Working"><path d="M31.77,4.14a20,20,0,0,0-21.63.06" style="fill:none;stroke:#ff4f8b;stroke-miterlimit:10;stroke-width:2px"/><path d="M2.48,13.45A19.77,19.77,0,0,0,1,21,20,20,0,1,0,37.86,10.23" style="fill:none;stroke:#ff4f8b;stroke-miterlimit:10;stroke-width:2px"/><path d="M8,5.84a20,20,0,0,0-4.38,5.35" style="fill:none;stroke:#ff4f8b;stroke-miterlimit:10;stroke-width:2px"/><path d="M38,31l9.39,8.72a5.22,5.22,0,0,1-.1,7.36h0a5.21,5.21,0,0,1-7.37.1L31,38.93" style="fill:none;stroke:#ff4f8b;stroke-miterlimit:10;stroke-width:2px"/><polyline points="13.19 15.19 21.19 23.19 39.19 1.19" style="fill:none;stroke:#ff4f8b;stroke-miterlimit:10;stroke-width:2px"/><line x1="21" y1="1" x2="21" y2="8" style="fill:none;stroke:#ff4f8b;stroke-miterlimit:10;stroke-width:2px"/><line x1="21" y1="34" x2="21" y2="41" style="fill:none;stroke:#ff4f8b;stroke-miterlimit:10;stroke-width:2px"/><line x1="1" y1="21" x2="8" y2="21" style="fill:none;stroke:#ff4f8b;stroke-miterlimit:10;stroke-width:2px"/><line x1="34" y1="21" x2="41" y2="21" style="fill:none;stroke:#ff4f8b;stroke-miterlimit:10;stroke-width:2px"/><rect width="50" height="50" style="fill:none"/><line x1="34" y1="41" x2="41" y2="34" style="fill:none;stroke:#ff4f8b;stroke-miterlimit:10;stroke-width:2px"/></g></svg>