<svg xmlns="http://www.w3.org/2000/svg" width="75" height="75" viewBox="0 0 75 75"><title>AWS-Transfer-for-SFTP_Icon copy 3</title><g id="Icons_Final" data-name="Icons Final"><rect id="Turquoise_Dark_BG" data-name="Turquoise Dark BG" width="75" height="75" style="fill:#56c0a7"/><g id="_64px_Live" data-name="64px Live"><polyline points="49.5 33 57.5 33 57.5 62 40.5 62 23.5 62 17.5 62" style="fill:none;stroke:#232f3e;stroke-linejoin:round;stroke-width:2px"/><path d="M36.5,28H30.76l-2.7-3H15.5V60a2,2,0,0,0,2,2h0a2,2,0,0,0,2-2V33h17" style="fill:none;stroke:#232f3e;stroke-linejoin:round;stroke-width:2px"/><polyline points="46.5 29 46.5 38 51.5 38 43.05 48 34.5 38 39.5 38 39.5 29" style="fill:none;stroke:#232f3e;stroke-linejoin:round;stroke-width:2px"/><polyline points="46.5 33 46.5 23 40.9 23 50 13 59.1 23 53.5 23 53.5 33" style="fill:none;stroke:#232f3e;stroke-linejoin:round;stroke-width:2px"/></g></g></svg>