<svg xmlns="http://www.w3.org/2000/svg" viewBox="0 0 100 100"><defs><style>.cls-1{fill:#56c0a7;}.cls-2{fill:#fff;}.cls-3{fill:none;}.cls-4{fill:#232f3e;}</style></defs><title>Migration-and-Transfer_dark-bg</title><g id="Working"><rect class="cls-1" x="8.5" y="8.5" width="82" height="82"/><path class="cls-2" d="M89,10V89H10V10H89m3-3H7V92H92V7Z"/><rect class="cls-3" width="100" height="100"/><path class="cls-4" d="M66.35,41.46a6.78,6.78,0,0,0-8-7.75c-1.62-4.81-5.88-7.44-12.1-7.44-.12,0-11.83.16-12.35,13.92C25.11,40.8,25,49.56,25,49.65a10.16,10.16,0,0,0,9.84,10.2h5l-2.59,3.31A1,1,0,0,0,38,64.78h7v8a1,1,0,0,0,1,1h8a1,1,0,0,0,1-1v-8h7a1,1,0,0,0,.79-1.62L60.2,59.85h6.22c5.13,0,8.58-4,8.58-9.86C75,46.26,72.71,41.94,66.35,41.46ZM54,62.78a1,1,0,0,0-1,1v8H47v-8a1,1,0,0,0-1-1H40.05L50,50,60,62.78Zm12.43-4.93H58.63L50.79,47.8a1,1,0,0,0-1.58,0L41.37,57.85H34.84A8.13,8.13,0,0,1,27,49.66c0-.31.13-7.51,7.84-7.51a1,1,0,0,0,1-1c0-12.68,9.95-12.88,10.37-12.88,4,0,9,1.18,10.43,6.85a1,1,0,0,0,.46.61,1,1,0,0,0,.76.11,4.93,4.93,0,0,1,6.33,6.33,1,1,0,0,0,1,1.24c5.78,0,7.84,3.4,7.84,6.58C73,53.79,71.27,57.85,66.42,57.85Z"/></g></svg>