<svg xmlns="http://www.w3.org/2000/svg" viewBox="0 0 100 100"><defs><style>.cls-1{fill:#a166ff;}.cls-2{fill:#fff;}.cls-3{fill:none;}.cls-4{fill:#232f3e;}</style></defs><title>Networking-and-Content-Delivery_dark-bg</title><g id="Working"><rect class="cls-1" x="8.5" y="8.5" width="82" height="82"/><path class="cls-2" d="M89,10V89H10V10H89m3-3H7V92H92V7Z"/><rect class="cls-3" width="100" height="100"/><path class="cls-4" d="M65.16,55c4.58,0,7.31-3.23,7.31-8.64,0-3.35-2.29-6.92-8.62-7.32a7.56,7.56,0,0,0-2.57-6.27,4.62,4.62,0,0,0-4-1.17c-1.47-4.38-4.78-6.6-9.85-6.6-.1,0-10.57.15-11.08,12.76-8.76.55-8.86,8.52-8.86,8.6A8.41,8.41,0,0,0,36.11,55H46l-7.22,6.22a4.74,4.74,0,0,0-2.71-.85,4.79,4.79,0,1,0,4.78,4.79,4.66,4.66,0,0,0-.71-2.48L49,55.1V65.53a4.79,4.79,0,1,0,2,0V55.1l8.82,7.58a4.66,4.66,0,0,0-.71,2.48,4.79,4.79,0,1,0,4.78-4.79,4.74,4.74,0,0,0-2.71.85L54,55ZM29.53,46.37c0-.27.14-6.64,7.84-6.64a1,1,0,0,0,1-1c0-11.54,8.74-11.73,9.1-11.73C52,27,54.63,29,55.69,33.13a1,1,0,0,0,1.43.64,2.57,2.57,0,0,1,2.87.52,5.44,5.44,0,0,1,1.69,5.4,1,1,0,0,0,1,1.31c4.91,0,7.84,2,7.84,5.36,0,2.48-.69,6.64-5.31,6.64h-29A6.45,6.45,0,0,1,29.53,46.37ZM36.11,68a2.79,2.79,0,1,1,2.78-2.79A2.79,2.79,0,0,1,36.11,68Zm16.68,2.26A2.79,2.79,0,1,1,50,67.42,2.79,2.79,0,0,1,52.79,70.21Zm11.1-7.84a2.79,2.79,0,1,1-2.78,2.79A2.79,2.79,0,0,1,63.89,62.37Z"/></g></svg>