<svg xmlns="http://www.w3.org/2000/svg" viewBox="0 0 100 100"><defs><style>.cls-1{fill:#ff5252;}.cls-2{fill:#fff;}.cls-3{fill:#232f3e;}.cls-4{fill:none;}</style></defs><title>Security-Identity-and-Compliance_dark-bg</title><g id="Reference"><rect class="cls-1" x="8.5" y="8.5" width="82" height="82"/><path class="cls-2" d="M89,10V89H10V10H89m3-3H7V92H92V7Z"/><path class="cls-3" d="M50,79.45C28.25,79.45,28,54,28,53.7V29.54a1,1,0,0,1,.64-.93l21-8.09a1,1,0,0,1,.72,0l21,8.09a1,1,0,0,1,.64.93V55.2C72,55.44,71.75,79.45,50,79.45ZM30,30.23V53.7a34.91,34.91,0,0,0,2.57,12C35.88,73.51,41.75,77.45,50,77.45s14.16-3.71,17.46-11A30.68,30.68,0,0,0,70,55.2v-25L50,22.52Z"/><path class="cls-3" d="M50,73.45c-5.29,0-9.75-3-12.88-8.77A31.55,31.55,0,0,1,34,56.13,1.1,1.1,0,0,1,34,56V33.45a1,1,0,0,1,.63-.93l15-6a1,1,0,0,1,.74,0l15,6a1,1,0,0,1,.63.93V56a1.1,1.1,0,0,1,0,.18,31.55,31.55,0,0,1-3.1,8.55C59.75,70.42,55.29,73.45,50,73.45ZM36,55.85c.25,1.23,3.4,15.6,14,15.6s13.75-14.37,14-15.6V34.13l-14-5.6-14,5.6Z"/><rect class="cls-3" x="49" y="27.45" width="2" height="45"/><rect class="cls-4" width="100" height="100"/></g></svg>