<svg xmlns="http://www.w3.org/2000/svg" width="50" height="50" viewBox="0 0 50 50"><title>Amazon-RDS_SQL-Server_instance-alt_dark-bg</title><g id="Working"><path d="M4.85,10.6a3.11,3.11,0,0,1-1.06-.87,1.89,1.89,0,0,1-.32-1.11,2.05,2.05,0,0,1,.28-1.07,1.93,1.93,0,0,1,.77-.7A2.45,2.45,0,0,1,5.63,6.6,3.72,3.72,0,0,1,7.2,7V8a4.37,4.37,0,0,0-1.43-.29,1,1,0,0,0-.66.21.73.73,0,0,0-.24.58A.81.81,0,0,0,5,9a1.82,1.82,0,0,0,.59.45l.54.29a4,4,0,0,1,.83.55,1.93,1.93,0,0,1,.45.63,2.09,2.09,0,0,1,.14.83A1.92,1.92,0,0,1,7,13.28a2.45,2.45,0,0,1-1.7.56,4.38,4.38,0,0,1-.94-.11,3.44,3.44,0,0,1-.79-.29v-1a5.64,5.64,0,0,0,.84.23,4.36,4.36,0,0,0,.79.1,1,1,0,0,0,.73-.23.8.8,0,0,0,.25-.64A.79.79,0,0,0,6,11.32a1.87,1.87,0,0,0-.59-.43Z" style="fill:#527fff"/><path d="M8.43,10.22a4.33,4.33,0,0,1,.73-2.67,2.45,2.45,0,0,1,2.05-1,2.44,2.44,0,0,1,2,1A4.26,4.26,0,0,1,14,10.22a4.87,4.87,0,0,1-.45,2.22,2.44,2.44,0,0,1-1.32,1.23,2.93,2.93,0,0,0,.69.39,4.31,4.31,0,0,0,.93.2V15.4a4.59,4.59,0,0,1-2.77-1.56,2.42,2.42,0,0,1-2-1A4.36,4.36,0,0,1,8.43,10.22Zm1.44,0a4.11,4.11,0,0,0,.34,1.86,1.11,1.11,0,0,0,2,0,4,4,0,0,0,.34-1.86,4.06,4.06,0,0,0-.33-1.87,1.13,1.13,0,0,0-2,0A4.06,4.06,0,0,0,9.87,10.22Z" style="fill:#527fff"/><path d="M15.17,13.69V6.76h1.4v5.82h2.36v1.11Z" style="fill:#527fff"/><path d="M22.87,10.6a3.11,3.11,0,0,1-1.06-.87,1.89,1.89,0,0,1-.32-1.11,2.05,2.05,0,0,1,.28-1.07,1.86,1.86,0,0,1,.77-.7,2.45,2.45,0,0,1,1.11-.25A3.72,3.72,0,0,1,25.22,7V8a4.37,4.37,0,0,0-1.43-.29,1,1,0,0,0-.66.21.73.73,0,0,0-.24.58.81.81,0,0,0,.16.5,1.82,1.82,0,0,0,.59.45l.54.29a4.25,4.25,0,0,1,.83.55,1.93,1.93,0,0,1,.45.63,2.29,2.29,0,0,1,.14.83A1.92,1.92,0,0,1,25,13.28a2.45,2.45,0,0,1-1.7.56,4.38,4.38,0,0,1-.94-.11,3.44,3.44,0,0,1-.79-.29v-1a5.64,5.64,0,0,0,.84.23,4.36,4.36,0,0,0,.79.1,1,1,0,0,0,.73-.23.8.8,0,0,0,.25-.64.79.79,0,0,0-.17-.53,1.87,1.87,0,0,0-.59-.43Z" style="fill:#527fff"/><path d="M27.55,11.48a1.63,1.63,0,0,0,.3,1,1.18,1.18,0,0,0,.88.3,2.67,2.67,0,0,0,.57-.08,5.53,5.53,0,0,0,.66-.2v.92a2.21,2.21,0,0,1-.69.28,3.75,3.75,0,0,1-.82.09c-1.42,0-2.14-.89-2.14-2.67a3.24,3.24,0,0,1,.53-2,1.79,1.79,0,0,1,1.51-.7c1.14,0,1.7.7,1.7,2.08a4.1,4.1,0,0,1-.1,1Zm.76-2.1c-.48,0-.73.41-.76,1.24h1.34v-.23a1.52,1.52,0,0,0-.14-.78A.46.46,0,0,0,28.31,9.38Z" style="fill:#527fff"/><path d="M31,13.69V8.58h1.12l.15.65a2.44,2.44,0,0,1,.6-.54,1.23,1.23,0,0,1,.62-.17,1.65,1.65,0,0,1,.32,0V9.77a2.44,2.44,0,0,0-.53,0,1.85,1.85,0,0,0-.91.24v3.73Z" style="fill:#527fff"/><path d="M35.81,13.69,34.27,8.58h1.45l.74,3.64.76-3.64h1.41L37.1,13.69Z" style="fill:#527fff"/><path d="M40.27,11.48a1.63,1.63,0,0,0,.3,1,1.18,1.18,0,0,0,.88.3,2.76,2.76,0,0,0,.57-.08,5.53,5.53,0,0,0,.66-.2v.92a2.21,2.21,0,0,1-.69.28,3.75,3.75,0,0,1-.82.09c-1.42,0-2.14-.89-2.14-2.67a3.24,3.24,0,0,1,.53-2,1.79,1.79,0,0,1,1.51-.7c1.14,0,1.7.7,1.7,2.08a4.1,4.1,0,0,1-.1,1ZM41,9.38c-.48,0-.73.41-.76,1.24h1.34v-.23a1.52,1.52,0,0,0-.14-.78A.46.46,0,0,0,41,9.38Z" style="fill:#527fff"/><path d="M43.71,13.69V8.58h1.12l.15.65a2.44,2.44,0,0,1,.6-.54,1.23,1.23,0,0,1,.62-.17,1.65,1.65,0,0,1,.32,0V9.77a2.44,2.44,0,0,0-.53,0,1.85,1.85,0,0,0-.91.24v3.73Z" style="fill:#527fff"/><path d="M43.55,0H6.45A6.45,6.45,0,0,0,0,6.45v37.1A6.45,6.45,0,0,0,6.45,50h37.1A6.45,6.45,0,0,0,50,43.55V6.45A6.45,6.45,0,0,0,43.55,0ZM48,43.55A4.46,4.46,0,0,1,43.55,48H6.45A4.45,4.45,0,0,1,2,43.55V6.45A4.45,4.45,0,0,1,6.45,2h37.1A4.46,4.46,0,0,1,48,6.45Z" style="fill:#527fff"/></g></svg>