<svg xmlns="http://www.w3.org/2000/svg" viewBox="0 0 100 100"><defs><style>.cls-1{fill:#527fff;}.cls-2{fill:#fff;}.cls-3{fill:none;}.cls-4{fill:#232f3e;}</style></defs><title>Database_dark-bg</title><g id="Working"><rect class="cls-1" x="8.5" y="8.5" width="82" height="82"/><path class="cls-2" d="M89,10V89H10V10H89m3-3H7V92H92V7Z"/><rect class="cls-3" width="100" height="100"/><path class="cls-4" d="M50,24c-10,0-17.63,3.21-17.63,7.48v37C32.37,72.79,40,76,50,76s17.63-3.21,17.63-7.48v-37C67.63,27.21,60.05,24,50,24Zm0,2c9.21,0,15.63,2.89,15.63,5.48S59.21,37,50,37s-15.63-2.88-15.63-5.47S40.79,26,50,26Zm0,48c-9.21,0-15.63-2.89-15.63-5.48v-7.8C37.27,63.09,43,64.64,50,64.64s12.73-1.55,15.63-3.92v7.8C65.63,71.11,59.21,74,50,74Zm0-11.36c-9.21,0-15.63-2.89-15.63-5.48V48C37.27,50.36,43,51.91,50,51.91S62.73,50.36,65.63,48v9.16C65.63,59.75,59.21,62.64,50,62.64Zm0-12.73c-9.21,0-15.63-2.89-15.63-5.48V35C37.27,37.41,43,39,50,39S62.73,37.41,65.63,35v9.39C65.63,47,59.21,49.91,50,49.91Z"/></g></svg>