<svg xmlns="http://www.w3.org/2000/svg" viewBox="0 0 100 100"><defs><style>.cls-1{fill:#6cae3e;}.cls-2{fill:#fff;}.cls-3{fill:none;}.cls-4{fill:#232f3e;}</style></defs><title>AWS-Cost-Management_dark-bg</title><g id="Working"><rect class="cls-1" x="8.5" y="8.5" width="82" height="82"/><path class="cls-2" d="M89,10V89H10V10H89m3-3H7V92H92V7Z"/><rect class="cls-3" width="100" height="100"/><g id="ICONS_-_EDIT" data-name="ICONS - EDIT"><path class="cls-4" d="M69,37H59V30.54C59,27.65,56.85,26,53.11,26H39.67A4.62,4.62,0,0,0,35,30.54V33a1,1,0,0,0,1,1h6v3H32a1,1,0,0,0-1,1V73a1,1,0,0,0,1,1H69a1,1,0,0,0,1-1V38A1,1,0,0,0,69,37ZM53.11,28c2.58,0,3.89.85,3.89,2.54V39H44V30.62A3.83,3.83,0,0,0,43.46,28ZM37,32V30.54A2.61,2.61,0,0,1,39.67,28a2.54,2.54,0,0,1,1.93.84,1.81,1.81,0,0,1,.4,1.53V32ZM68,72H33V39h9v1a1,1,0,0,0,1,1H58a1,1,0,0,0,1-1V39h9Z"/><path class="cls-4" d="M63,53H38a1,1,0,0,1-1-1V44a1,1,0,0,1,1-1H63a1,1,0,0,1,1,1v8A1,1,0,0,1,63,53ZM39,51H62V45H39Z"/><path class="cls-4" d="M63,69H57a1,1,0,0,1-1-1V56a1,1,0,0,1,1-1h6a1,1,0,0,1,1,1V68A1,1,0,0,1,63,69Zm-5-2h4V57H58Z"/><rect class="cls-4" x="37" y="55" width="5" height="2"/><rect class="cls-4" x="47" y="55" width="5" height="2"/><rect class="cls-4" x="37" y="61" width="5" height="2"/><rect class="cls-4" x="47" y="61" width="5" height="2"/><rect class="cls-4" x="37" y="67" width="5" height="2"/><rect class="cls-4" x="47" y="67" width="5" height="2"/></g></g></svg>