<svg xmlns="http://www.w3.org/2000/svg" viewBox="0 0 100 100"><defs><style>.cls-1{fill:#6cae3e;}.cls-2{fill:#fff;}.cls-3{fill:#232f3e;}</style></defs><title>Internet-of-Things_dark-bg</title><g id="Working"><rect class="cls-1" x="9" y="9" width="82" height="82"/><path class="cls-2" d="M89.5,10.5v79h-79v-79h79m3-3H7.5v85h85V7.5Z"/><path class="cls-3" d="M75,50a7.48,7.48,0,0,0-6.74-7.43A19.82,19.82,0,0,0,57.42,31.74a7.45,7.45,0,0,0-14.84,0A19.82,19.82,0,0,0,31.74,42.57a7.47,7.47,0,0,0,0,14.86A19.65,19.65,0,0,0,43,68.43V75h2V69.06a20.33,20.33,0,0,0,4,.61V75h2V69.67a20.33,20.33,0,0,0,4-.61V75h2V68.43a19.65,19.65,0,0,0,11.26-11A7.48,7.48,0,0,0,75,50ZM50,27a5.46,5.46,0,1,1-5.46,5.46A5.47,5.47,0,0,1,50,27ZM27,50a5.46,5.46,0,1,1,5.46,5.46A5.47,5.47,0,0,1,27,50Zm6.88,7.32a7.47,7.47,0,0,0,6-6.32H43V66.27A17.69,17.69,0,0,1,33.88,57.32ZM45,67V50a1,1,0,0,0-1-1H39.85a7.48,7.48,0,0,0-6-6.32,17.7,17.7,0,0,1,8.78-8.78,7.48,7.48,0,0,0,6.32,6V67.67A18.29,18.29,0,0,1,45,67Zm6,.68V39.85a7.48,7.48,0,0,0,6.32-6,17.7,17.7,0,0,1,8.78,8.78A7.48,7.48,0,0,0,60.15,49H56a1,1,0,0,0-1,1V67A18.29,18.29,0,0,1,51,67.67Zm6-1.4V51h3.15a7.47,7.47,0,0,0,6,6.32A17.64,17.64,0,0,1,57,66.27ZM67.54,55.46A5.46,5.46,0,1,1,73,50,5.47,5.47,0,0,1,67.54,55.46Z"/></g></svg>