<svg height="48" viewBox="0 0 48 48" width="48" xmlns="http://www.w3.org/2000/svg"><g fill="#6cae3e"><path d="m40 17v-6a1 1 0 0 0 -.28-.71l-8-8a1 1 0 0 0 -.72-.29h-24a1 1 0 0 0 -1 1v42a1 1 0 0 0 1 1h32a1 1 0 0 0 1-1v-4h-2v3h-30v-40h22v7a1 1 0 0 0 1 1h7v5zm-8-7v-4.59l4.59 4.59z"/><path d="m32.59 41h-4.18a1 1 0 0 1 -1-1.06v-.93a9.54 9.54 0 0 1 -1.55-.64l-.62.7a1.05 1.05 0 0 1 -.72.33 1 1 0 0 1 -.74-.29l-2.95-3a1 1 0 0 1 -.29-.74 1.05 1.05 0 0 1 .33-.72l.7-.62a9.54 9.54 0 0 1 -.57-1.5l-.93.06a1 1 0 0 1 -.75-.28 1 1 0 0 1 -.31-.72v-4.18a1 1 0 0 1 .31-.72 1 1 0 0 1 .75-.28l.93.06a11 11 0 0 1 .64-1.55l-.7-.62a1.05 1.05 0 0 1 -.33-.72 1 1 0 0 1 .29-.74l2.95-2.95a1 1 0 0 1 .74-.29 1.05 1.05 0 0 1 .72.33l.62.7a11 11 0 0 1 1.54-.63v-.93a1 1 0 0 1 1-1.06h4.18a1 1 0 0 1 1 1.06v.94a9.92 9.92 0 0 1 1.55.64l.62-.71a1.05 1.05 0 0 1 .72-.33 1 1 0 0 1 .74.29l3 2.95a1 1 0 0 1 .29.74 1.05 1.05 0 0 1 -.33.72l-.7.62a10.52 10.52 0 0 1 .46 1.54l.93-.06a1 1 0 0 1 .75.28 1 1 0 0 1 .31.72v4.18a1 1 0 0 1 -.31.72 1 1 0 0 1 -.75.28l-.93-.06a9.54 9.54 0 0 1 -.64 1.55l.7.62a1.05 1.05 0 0 1 .33.72 1 1 0 0 1 -.29.74l-3 3a1 1 0 0 1 -.74.29 1.05 1.05 0 0 1 -.72-.33l-.62-.7a9.54 9.54 0 0 1 -1.55.64v.93a1 1 0 0 1 -1 1.06zm-3.12-2h2.06v-.68a1 1 0 0 1 .78-1 8.1 8.1 0 0 0 2.49-1 1 1 0 0 1 1.28.18l.45.5 1.45-1.45-.55-.55a1 1 0 0 1 -.18-1.28 7.72 7.72 0 0 0 1-2.48 1 1 0 0 1 1-.78h.69v-1.99h-.69a1 1 0 0 1 -1-.78 8 8 0 0 0 -1-2.48 1 1 0 0 1 .18-1.21l.52-.46-1.46-1.45-.46.51a1 1 0 0 1 -1.28.18 8 8 0 0 0 -2.48-1 1 1 0 0 1 -.78-1v-.69h-2.02v.69a1 1 0 0 1 -.78 1 8 8 0 0 0 -2.48 1 1 1 0 0 1 -1.21-.21l-.46-.51-1.45 1.45.51.46a1 1 0 0 1 .18 1.28 8 8 0 0 0 -1 2.48 1 1 0 0 1 -1 .78h-.69v2.06h.68a1 1 0 0 1 1 .78 7.86 7.86 0 0 0 1 2.49 1 1 0 0 1 -.2 1.16l-.51.45 1.45 1.45.45-.51a1 1 0 0 1 1.28-.18 7.89 7.89 0 0 0 2.49 1 1 1 0 0 1 .78 1z"/><path d="m30.5 35a5.5 5.5 0 1 1 5.5-5.5 5.51 5.51 0 0 1 -5.5 5.5zm0-9a3.5 3.5 0 1 0 3.5 3.5 3.5 3.5 0 0 0 -3.5-3.5z"/><path d="m10 10h17v2h-17z"/><path d="m10 15h11v2h-11z"/></g></svg>