<svg xmlns="http://www.w3.org/2000/svg" viewBox="0 0 50 50"><defs><style>.cls-1{fill:#6cae3e;}</style></defs><title>IoT_Over-the-air-update_dark-bg</title><g id="Reference"><path class="cls-1" d="M26.82,29.34h5.83V23.51h-2v2.23A10.21,10.21,0,0,0,13.78,33.5h2a8.22,8.22,0,0,1,13.67-6.16H26.82Z"/><path class="cls-1" d="M24,41.72a8.21,8.21,0,0,1-5.45-2.07h2.63v-2H15.35v5.84h2V41.25A10.21,10.21,0,0,0,34.22,33.5h-2A8.23,8.23,0,0,1,24,41.72Z"/><path class="cls-1" d="M41.14,19.19c-.4-3.06-2-5.26-4.47-6a5.55,5.55,0,0,0-5,1,14.34,14.34,0,0,0-2.8-4.08A12.36,12.36,0,0,0,15,7.33,13,13,0,0,0,7.6,18.74c0,.23,0,.46,0,.69A8.6,8.6,0,0,0,1.5,28.1c0,.25,0,.49,0,.73a9.2,9.2,0,0,0,9.29,8.47h1v-2h-1a7.19,7.19,0,0,1-7.29-6.6c0-.19,0-.39,0-.6a6.74,6.74,0,0,1,5.36-7h0A1,1,0,0,0,9.68,20a9.45,9.45,0,0,1-.08-1.3,11,11,0,0,1,6.15-9.56,10.33,10.33,0,0,1,11.74,2.34,12.53,12.53,0,0,1,2.92,4.78,1,1,0,0,0,1.75.26,3.65,3.65,0,0,1,4-1.43c1.74.51,2.89,2.28,3.09,4.75A1,1,0,0,0,40,21c1.95.33,6.48,1.7,6.48,7.17,0,6.52-6.33,7.14-6.51,7.16H37.22v2h2.85c2.91-.24,8.43-2.45,8.43-9.16C48.5,22.83,44.83,20.07,41.14,19.19Z"/></g></svg>