<svg xmlns="http://www.w3.org/2000/svg" viewBox="0 0 100 100"><defs><style>.cls-1{fill:#527fff;}.cls-2{fill:#fff;}.cls-3{fill:none;}.cls-4{fill:#232f3e;}</style></defs><title>Developer-Tools_dark-bg</title><g id="Working"><rect class="cls-1" x="8.5" y="8.5" width="82" height="82"/><path class="cls-2" d="M89,10V89H10V10H89m3-3H7V92H92V7Z"/><rect class="cls-3" width="100" height="100"/><g id="ICONS_-_EDIT" data-name="ICONS - EDIT"><path class="cls-4" d="M58.7,50.06l6.18-6.18a9.42,9.42,0,0,0,9.2-13.46A1,1,0,0,0,72.75,30a1.1,1.1,0,0,0-.28.2l-5.61,5.61a1.8,1.8,0,0,1-2.56,0,1.82,1.82,0,0,1,0-2.56l5.61-5.61a1,1,0,0,0,.28-.88,1,1,0,0,0-.56-.73,9.41,9.41,0,0,0-13.45,9.2l-7.92,7.88-6.85-6.87a1.83,1.83,0,0,1-.45-.73l-1.6-5a3.83,3.83,0,0,0-2.07-2.32l-5.48-2.45a3.86,3.86,0,0,0-4.3.79l-1.1,1.09a3.88,3.88,0,0,0-.78,4.3l2.49,5.48a3.83,3.83,0,0,0,2.32,2.07l5.42,1.74L43,48.32l-7.92,7.92A9.42,9.42,0,0,0,25,65a9.55,9.55,0,0,0,.9,4.74,1,1,0,0,0,.73.56,1,1,0,0,0,.88-.28l5.61-5.61a1.81,1.81,0,0,1,2.56,2.56l-5.61,5.61a1,1,0,0,0,0,1.41,1.05,1.05,0,0,0,.27.2,9.41,9.41,0,0,0,13.46-9.2L50,58.76,64.77,73.53a4.58,4.58,0,0,0,6.47,0h0l2.23-2.23a4.57,4.57,0,0,0,0-6.46h0Zm-.77-13.8a1,1,0,0,0,.29-.84,7.4,7.4,0,0,1,9.17-8.13l-4.51,4.5a3.81,3.81,0,0,0,5.39,5.39l4.5-4.51a7.45,7.45,0,0,1-1.94,7.07,7.35,7.35,0,0,1-6.2,2.1,1,1,0,0,0-.83.29l-6.51,6.52-.91-.91a3.2,3.2,0,0,0-4-.46l-2.75-2.77ZM37.1,39.57l-.17-.17-5.88-1.88a1.83,1.83,0,0,1-1.11-1l-2.49-5.46A1.85,1.85,0,0,1,27.83,29l1.09-1.11A1.83,1.83,0,0,1,31,27.52L36.49,30a1.83,1.83,0,0,1,1,1.11l1.6,5A3.89,3.89,0,0,0,40,37.65l10.93,11L48.56,51Zm5,24.29a1,1,0,0,0-.29.84,7.4,7.4,0,0,1-9.17,8.13l4.5-4.5A3.81,3.81,0,1,0,32,62.76a1.62,1.62,0,0,0-.19.18l-4.54,4.51a7.47,7.47,0,0,1,2-7.07,7.33,7.33,0,0,1,6.19-2.1A1,1,0,0,0,36.2,58l8.25-8.26,2.77,2.75a3.2,3.2,0,0,0,.46,4l.91.91Zm30,6-2.23,2.23a2.6,2.6,0,0,1-3.65,0l-17.13-17a1.24,1.24,0,0,1,0-1.72l4.15-4.15a1.23,1.23,0,0,1,1.72,0l17.1,17.1a2.58,2.58,0,0,1,0,3.64Z"/></g></g></svg>